PathFileType	4	(X/Y/Z)	C:/Users/opensim2020/Desktop/walking_exp_matlab/subject03_walking05_straight_03.trc	
DataRate	CameraRate	NumFrames	NumMarkers	Units	OrigDataRate	OrigDataStartFrame	OrigNumFrames	
100.00	100.00	4	45	mm	100.00	2367	293	
Frame#	Time	LFHD			RFHD			LBHD			RBHD			C7			T10			CLAV			STRN			RBAK			LSHO			LUPA			LELB			LFRM			LWRA			LWRB			LFIN			RSHO			RUPA			RELB			RFRM			RWRA			RWRB			RFIN			LASI			RASI			LPSI			RPSI			LTHI			LKNE			LTIB			LANK			LHEE			LTOE			RTHI			RKNE			RTIB			RANK			RHEE			RTOE			*39			*40			*41			*42			*43			*44			
		X1	Y1	Z1	X2	Y2	Z2	X3	Y3	Z3	X4	Y4	Z4	X5	Y5	Z5	X6	Y6	Z6	X7	Y7	Z7	X8	Y8	Z8	X9	Y9	Z9	X10	Y10	Z10	X11	Y11	Z11	X12	Y12	Z12	X13	Y13	Z13	X14	Y14	Z14	X15	Y15	Z15	X16	Y16	Z16	X17	Y17	Z17	X18	Y18	Z18	X19	Y19	Z19	X20	Y20	Z20	X21	Y21	Z21	X22	Y22	Z22	X23	Y23	Z23	X24	Y24	Z24	X25	Y25	Z25	X26	Y26	Z26	X27	Y27	Z27	X28	Y28	Z28	X29	Y29	Z29	X30	Y30	Z30	X31	Y31	Z31	X32	Y32	Z32	X33	Y33	Z33	X34	Y34	Z34	X35	Y35	Z35	X36	Y36	Z36	X37	Y37	Z37	X38	Y38	Z38	X39	Y39	Z39	X40	Y40	Z40	X41	Y41	Z41	X42	Y42	Z42	X43	Y43	Z43	X44	Y44	Z44	X45	Y45	Z45	

257	2.560	-1063.45496	866.58618	1602.86560	-933.70697	835.93536	1605.59473	-1088.37256	741.15057	1558.08203	-959.98511	716.21924	1560.76013	-1031.14734	696.65326	1399.24976	-1033.59619	666.89465	1083.85913	-1017.92395	819.19604	1323.48730	-1024.94409	863.66748	1159.27087	-945.41644	634.32056	1220.23083	-1176.28296	788.72003	1362.98608	-1257.31763	820.96545	1177.48438	-1274.72009	866.25360	1065.10632	-1264.32410	953.20837	970.90393	-1222.72998	1030.87317	887.98224	-1273.19373	1012.79462	874.26978	-1258.57324	1077.00342	824.54431	-862.79517	754.23566	1342.87305	-799.38110	730.08447	1118.22009	-789.43262	732.47888	1004.36035	-789.72388	728.04840	867.04248	-825.83807	744.24139	768.10406	-782.92932	710.76605	767.98480	-794.94476	720.48877	693.67200	-1150.64441	834.15448	919.85980	-910.81903	836.93451	924.25916	-1096.08875	672.47522	942.70764	-947.28754	673.99255	949.43146	-1191.30212	737.09698	624.98682	-1164.54016	699.19409	448.04623	-1165.54944	562.16431	298.36481	-1125.76379	442.68347	124.82681	-1089.54858	390.90805	114.31959	-1092.30920	558.26379	27.48192	-871.70593	831.08154	633.46844	-909.79645	894.49640	463.94699	-908.90649	901.26874	276.86469	-956.37030	940.65454	65.20789	-1014.23969	904.47253	34.87771	-956.10199	1083.71045	33.57582	-1031.40332	773.86218	1662.03015															 
258	2.570	-1061.78430	876.82129	1604.46289	-932.01550	846.32281	1607.19470	-1086.55298	751.31714	1559.87854	-958.17450	726.56830	1562.54810	-1029.22791	706.67804	1400.90320	-1032.61450	677.69983	1085.37549	-1016.29572	829.43835	1325.32275	-1023.48279	874.40057	1161.30066	-943.54138	644.85864	1221.68640	-1174.63782	798.59985	1364.94202	-1255.44849	829.58838	1178.83533	-1272.68591	874.05029	1066.03015	-1262.42810	959.79205	970.64990	-1221.03052	1036.39368	886.71338	-1271.49536	1018.11688	873.21906	-1257.00745	1081.74536	822.85846	-861.09625	764.63556	1344.48279	-798.13983	741.69061	1119.59143	-788.46405	744.29266	1005.70374	-788.88220	739.67957	868.42975	-825.13574	755.31262	769.41589	-781.90619	722.24066	769.34204	-794.43097	731.17523	694.88879	-1148.78467	846.04614	921.00665	-909.25244	848.13837	927.25964	-1095.35950	684.18500	943.53412	-946.51666	685.02435	952.07233	-1190.62317	751.73761	624.91040	-1165.70007	715.91766	447.56439	-1165.89453	574.49982	301.42328	-1124.84973	450.14496	132.06409	-1088.34570	398.88120	124.45173	-1091.93213	559.09033	27.37778	-870.19867	840.59753	635.81561	-909.04578	903.50500	466.07211	-908.31635	906.14282	277.94476	-956.57019	940.98822	65.38946	-1014.13501	904.44672	35.05165	-956.00726	1084.00964	33.19138	-1029.59424	784.33264	1663.80225															 
259	2.580	-1060.10291	887.07782	1606.10327	-930.27692	856.74567	1608.79236	-1084.77637	761.43390	1561.93152	-956.37018	736.82172	1564.55249	-1027.44885	716.74548	1402.70447	-1031.67395	688.35101	1086.98450	-1014.67920	839.59918	1327.29224	-1021.95917	885.09406	1163.39844	-941.63806	655.45197	1223.16858	-1172.96204	808.43433	1367.15308	-1253.72046	838.28278	1180.45386	-1270.40625	881.59283	1067.15076	-1260.48450	966.02661	970.53760	-1219.32166	1041.48511	885.38702	-1269.89526	1022.88702	872.22186	-1255.53638	1085.82947	820.91669	-859.50763	775.08392	1346.32092	-796.80994	753.27716	1121.21997	-787.54669	756.26965	1007.36426	-787.90710	751.57825	870.12445	-824.43982	766.88275	771.08228	-780.62408	734.22217	771.04529	-793.78955	742.71069	696.34570	-1146.66260	857.72174	922.31665	-907.63940	859.02301	930.25159	-1094.55176	695.86609	944.46588	-945.92706	695.85999	954.71356	-1190.52881	766.77863	625.01184	-1167.35193	733.88245	447.22263	-1166.27429	588.11664	304.32162	-1124.41882	459.19424	139.66252	-1086.99524	408.70502	135.16423	-1091.17615	560.33331	27.43505	-868.12988	850.40668	638.08087	-907.69977	911.16876	467.85852	-907.10138	909.78900	278.64435	-956.61499	940.70837	65.43367	-1013.96130	904.50623	35.00851	-955.70996	1083.95898	32.97069	-1027.73120	794.84625	1665.67957															 
260	2.590	-1058.38306	897.27460	1607.64880	-928.56018	867.13593	1610.26746	-1082.98462	771.46185	1564.05066	-954.55487	746.99951	1566.54333	-1025.62463	726.73718	1404.27087	-1030.72327	698.82458	1088.58948	-1013.09033	849.70245	1329.21716	-1020.43018	895.74170	1165.47791	-939.79572	666.04932	1224.67639	-1171.23840	818.20886	1369.45105	-1251.53418	846.73175	1182.23132	-1268.02209	889.00580	1068.37512	-1258.54712	971.89728	970.44391	-1217.71167	1046.07727	883.90869	-1268.31897	1027.20752	871.18335	-1254.13135	1089.27942	818.73236	-857.96399	785.37866	1348.28894	-795.49011	764.88263	1123.07202	-786.59015	768.28577	1009.21539	-786.75555	763.90491	871.98639	-823.59485	778.92957	772.90704	-779.53729	746.84851	772.82562	-793.02002	754.77997	698.01978	-1144.49951	869.18884	923.86926	-905.92609	869.63116	933.14911	-1093.91382	707.18292	946.02722	-945.29797	706.60980	957.20673	-1190.40515	782.04907	625.03851	-1168.99866	752.65326	446.50229	-1166.90369	603.40686	307.91745	-1124.27466	470.08731	147.29477	-1085.78418	420.45343	146.14864	-1090.28333	561.55353	27.32960	-866.11646	859.91925	640.14221	-905.81921	917.74341	469.23148	-905.82721	912.34869	278.98282	-956.14160	940.29260	65.78153	-1013.66052	904.31073	34.95663	-955.53394	1083.75708	32.71501	-1025.78552	805.36981	1667.56714															 
